# xmcd CD database file
#
# Track frame offsets:
#	150
#	12163
#	23191
#	32166
#	43340
#	52431
#	64635
#	77432
#	87961
#	98828
#	107923
#	118158
#	131587
#	142853
#	152861
#
# Disc length: 2183 seconds
#
# Revision: 1
# Processed by: cddbd v1.5.2PL0 Copyright (c) Steve Scherf et al.
# Submitted via: CDex 1.51
#
DISCID=ca08850f
DTITLE=Various Artist - All Aboard - A Tribute To Johnny Cash
DYEAR=2008
DGENRE=Country
TTITLE0=Man In Black - Bouncing Souls
TTITLE1=Country Boy - Fallen From the Sky
TTITLE2=Wreck of the Old 97 - Chuck Ragan Featuring Jon Gaunt
TTITLE3=Let the Train Whistle Blow - Joe McMahon
TTITLE4=Delia's Gone - Ben Nichols
TTITLE5=God's Gonna Cut You Down - The Gaslight Anthem
TTITLE6=Cocaine Blues - The Loved Ones
TTITLE7=Give My Love To Rose - On Guard
TTITLE8=I Still Miss Someone - Casey James Prestwood
TTITLE9=Hey Porter - MXPX
TTITLE10=Cry, Cry, Cry - The Flatliners
TTITLE11=Ballad of a Teenage Queen - The Dresden Dolls and Franz Nicolay
TTITLE12=Folsom Prison Blues - Chon Travis
TTITLE13=There You Go - The Sainte Catherines
TTITLE14=I Walk the Line - Russ Rankin
EXTD=YEAR: 2008
EXTT0=
EXTT1=
EXTT2=
EXTT3=
EXTT4=
EXTT5=
EXTT6=
EXTT7=
EXTT8=
EXTT9=
EXTT10=
EXTT11=
EXTT12=
EXTT13=
EXTT14=
PLAYORDER=
